<svg xmlns="http://www.w3.org/2000/svg" xmlns:xlink="http://www.w3.org/1999/xlink" viewBox="0 0 47.24 47.24"><defs><style>.cls-1,.cls-2,.cls-6{fill:none;}.cls-1{clip-rule:evenodd;}.cls-3{clip-path:url(#clip-path);}.cls-4{clip-path:url(#clip-path-2);}.cls-5{fill:#c49d64;}.cls-6{stroke:#000;stroke-miterlimit:10;stroke-width:2px;}</style><clipPath id="clip-path" transform="translate(-164.38 -183.38)"><path class="cls-1" d="M185,197.26v10.49a3,3,0,1,0,6,0V197.26a3,3,0,1,0-6,0Zm-2.25-.25a5,5,0,0,1,5-5h.49a5,5,0,0,1,5,5v11a5,5,0,0,1-5,5h-.49a5,5,0,0,1-5-5ZM194,221.25a.75.75,0,0,1-.75.75h-10.5a.75.75,0,0,1-.75-.75v-.75a.75.75,0,0,1,.74-.75h4.13v-3c-3.75,0-7.87-4.54-7.87-7.53V204a.75.75,0,0,1,.75-.75h.75a.75.75,0,0,1,.75.76v5.21c0,2.25,3,5.25,6.75,5.25s6.75-3,6.75-5.25V204a.75.75,0,0,1,.75-.76h.75a.75.75,0,0,1,.75.74v5.22c0,3-4.12,7.53-7.87,7.53v3h4.13a.74.74,0,0,1,.74.75Z"/></clipPath><clipPath id="clip-path-2" transform="translate(-164.38 -183.38)"><rect class="cls-2" width="375" height="651"/></clipPath></defs><title>micro</title><g id="Calque_2" data-name="Calque 2"><g id="Calque_1-2" data-name="Calque 1"><g class="cls-3"><g class="cls-4"><rect class="cls-5" x="9.62" y="3.62" width="28" height="40"/></g></g><circle class="cls-6" cx="23.62" cy="23.62" r="22.62"/></g></g></svg>