<svg xmlns="http://www.w3.org/2000/svg" xmlns:xlink="http://www.w3.org/1999/xlink" viewBox="0 0 376 652"><defs><style>.cls-1,.cls-2{fill:none;}.cls-1,.cls-5{stroke:#c49d64;}.cls-1,.cls-2,.cls-5{stroke-miterlimit:10;}.cls-2{stroke:#000;stroke-width:2px;}.cls-3{clip-path:url(#clip-path);}.cls-4{clip-path:url(#clip-path-2);}.cls-5{fill:#c49d64;}</style><clipPath id="clip-path"><path class="cls-1" d="M178.9,295.91a1,1,0,0,0-1,1v12.61a1,1,0,0,0,1,1h9.43l5.52,4.42v-4.42h4.25a1,1,0,0,0,1-1V296.92a1,1,0,0,0-1-1Zm16.41,22.59-7.51-6.16H179a2.51,2.51,0,0,1-2.48-2.52V297A2.51,2.51,0,0,1,179,294.5h19A2.51,2.51,0,0,1,200.5,297v12.79a2.51,2.51,0,0,1-2.48,2.52h-2.71Z"/></clipPath><clipPath id="clip-path-2"><rect class="cls-1" x="0.5" y="0.5" width="375" height="651"/></clipPath></defs><title>sms</title><g id="Calque_2" data-name="Calque 2"><g id="Calque_1-2" data-name="Calque 1"><circle class="cls-2" cx="188.5" cy="305.5" r="22.62"/><g class="cls-3"><g class="cls-4"><rect class="cls-5" x="171.5" y="289.5" width="34" height="34"/></g><rect class="cls-1" x="0.5" y="0.5" width="375" height="651"/></g><path class="cls-1" d="M178.9,295.91a1,1,0,0,0-1,1v12.61a1,1,0,0,0,1,1h9.43l5.52,4.42v-4.42h4.25a1,1,0,0,0,1-1V296.92a1,1,0,0,0-1-1Zm16.41,22.59-7.51-6.16H179a2.51,2.51,0,0,1-2.48-2.52V297A2.51,2.51,0,0,1,179,294.5h19A2.51,2.51,0,0,1,200.5,297v12.79a2.51,2.51,0,0,1-2.48,2.52h-2.71Z"/></g></g></svg>