<?xml version="1.0" encoding="UTF-8"?>
<svg width="45px" height="45px" viewBox="0 0 45 45" version="1.1" xmlns="http://www.w3.org/2000/svg" xmlns:xlink="http://www.w3.org/1999/xlink">
    <!-- Generator: Sketch 46.2 (44496) - http://www.bohemiancoding.com/sketch -->
    <title>carson/speak</title>
    <desc>Created with Sketch.</desc>
    <defs></defs>
    <g id="Symbols" stroke="none" stroke-width="1" fill="none" fill-rule="evenodd">
        <g id="carson/speak">
            <circle id="Oval" stroke="#000000" stroke-width="2" cx="22.5" cy="22.5" r="22.5"></circle>
            <path d="M28,36.2507826 C28,36.664564 27.6665269,37 27.2493463,37 L16.7506537,37 C16.3360791,37 16,36.6680048 16,36.2507826 L16,35.4992174 C16,35.0854361 16.3350785,34.75 16.7404076,34.75 L20.875,34.75 L20.875,31.7499993 C17.125,31.75 13,27.2115986 13,24.2165353 C13,21.9776437 13,18.9989039 13,18.9989039 C13,18.5852957 13.3319952,18.25 13.7492174,18.25 L14.5007826,18.25 C14.9145639,18.25 15.25,18.5878822 15.25,19.0056658 L15.25,24.2165354 C15.25,26.4665354 18.25,29.4665347 22,29.4665354 C25.75,29.4665361 28.75,26.4665354 28.75,24.2165354 L28.75,19.0056659 C28.75,18.5883232 29.0819952,18.2500001 29.4992174,18.2500001 L30.2507826,18.2500001 C30.6645639,18.2500001 31,18.592614 31,18.9932269 L31,24.2165353 C31,27.2115986 26.875,31.75 23.125,31.7499993 L23.125,34.75 L27.2595924,34.75 C27.6685082,34.75 28,35.0819953 28,35.4992174 L28,36.2507826 Z M16.75,12.0033431 C16.75,9.24007301 18.9896345,7 21.7539864,7 L22.2460136,7 C25.009639,7 27.25,9.24736786 27.25,12.0033431 L27.25,22.9966569 C27.25,25.759927 25.0103655,28 22.2460136,28 L21.7539864,28 C18.990361,28 16.75,25.7526321 16.75,22.9966569 L16.75,12.0033431 Z M19,12.2571684 L19,22.7428316 C19,24.3997357 20.3431458,25.75 22,25.75 C23.6534829,25.75 25,24.4036448 25,22.7428316 L25,12.2571684 C25,10.6002643 23.6568542,9.25 22,9.25 C20.3465171,9.25 19,10.5963552 19,12.2571684 Z" id="Speech" fill="#C49D64"></path>
        </g>
    </g>
</svg>